<svg width="40" height="40" viewBox="0 0 40 40" fill="none" xmlns="http://www.w3.org/2000/svg">
<g opacity="0.3">
<mask id="mask0_47_118" style="mask-type:luminance" maskUnits="userSpaceOnUse" x="0" y="0" width="40" height="40">
<path d="M0 20C0 31.0457 8.95431 40 20 40C31.0457 40 40 31.0457 40 20C40 8.95431 31.0457 0 20 0C8.95431 0 0 8.95431 0 20Z" fill="white"/>
</mask>
<g mask="url(#mask0_47_118)">
<path d="M31.4286 0H8.57145C3.83756 0 0 3.83756 0 8.57145V31.4286C0 36.1625 3.83756 40 8.57145 40H31.4286C36.1625 40 40 36.1625 40 31.4286V8.57145C40 3.83756 36.1625 0 31.4286 0Z" fill="#674188"/>
<path d="M25.5 12C25.5 8.96242 23.1495 6.5 20.25 6.5C17.3505 6.5 15 8.96242 15 12C15 15.0376 17.3505 17.5 20.25 17.5C23.1495 17.5 25.5 15.0376 25.5 12Z" fill="#E9D6D6"/>
<path d="M29.9731 23.8601C29.9593 23.8601 29.9478 23.8497 29.9463 23.836C29.6676 21.3911 27.6308 19.5 25.125 19.5H15.375C12.8819 19.5 10.8452 21.4039 10.5539 23.8361C10.5522 23.8497 10.5407 23.8601 10.527 23.8601V23.8601C10.5121 23.8601 10.5 23.8722 10.5 23.8871V31.0884C10.5 31.3199 10.6787 31.5 10.9084 31.5H29.5916C29.8213 31.5 30 31.3199 30 31.0884V23.887C30 23.8722 29.9879 23.8601 29.9731 23.8601V23.8601Z" fill="#E9D6D6"/>
</g>
</g>
</svg>
